<svg width="54" height="55" viewBox="0 0 54 55" fill="none" xmlns="http://www.w3.org/2000/svg">
<path d="M51.4637 36.8474C52.5744 35.4306 53.1072 33.9118 53.0391 32.3477C52.9711 30.6249 52.2004 29.2762 51.5657 28.4488C52.3024 26.6126 52.5858 23.7224 50.1263 21.4783C48.3241 19.8348 45.2639 19.0981 41.0249 19.3021C38.044 19.4381 35.5505 19.9935 35.4485 20.0161H35.4372C34.8705 20.1182 34.2698 20.2428 33.6577 20.3788C33.6124 19.6535 33.737 17.8513 35.0745 13.7937C36.6613 8.96533 36.5706 5.27039 34.7798 2.79954C32.8983 0.204015 29.8948 0 29.0107 0C28.1606 0 27.3786 0.351359 26.8232 0.997407C25.5651 2.45952 25.7125 5.15705 25.8711 6.40381C24.375 10.4161 20.1814 20.2542 16.6338 22.9857C16.5658 23.031 16.5091 23.0877 16.4524 23.1444C15.4097 24.2438 14.707 25.4339 14.2309 26.4766C13.5622 26.1139 12.8028 25.9099 11.9868 25.9099H5.07293C2.46607 25.9099 0.35791 28.0294 0.35791 30.6249V49.043C0.35791 51.6498 2.4774 53.758 5.07293 53.758H11.9868C12.9955 53.758 13.9362 53.4406 14.707 52.8966L17.3705 53.2139C17.7785 53.2706 25.0324 54.1887 32.479 54.0413C33.8277 54.1433 35.0972 54.2 36.2759 54.2C38.3047 54.2 40.0729 54.0413 41.5463 53.724C45.0146 52.9873 47.3834 51.5138 48.5848 49.349C49.5029 47.6942 49.5029 46.0507 49.3555 45.008C51.611 42.9678 52.0077 40.7123 51.9284 39.1256C51.8831 38.2075 51.679 37.4254 51.4637 36.8474ZM5.07293 50.6978C4.15486 50.6978 3.41814 49.9497 3.41814 49.043V30.6136C3.41814 29.6955 4.16619 28.9588 5.07293 28.9588H11.9868C12.9048 28.9588 13.6416 29.7069 13.6416 30.6136V49.0316C13.6416 49.9497 12.8935 50.6864 11.9868 50.6864H5.07293V50.6978ZM48.5621 35.5213C48.0861 36.02 47.9954 36.7794 48.3581 37.3688C48.3581 37.3801 48.8228 38.1735 48.8795 39.2616C48.9588 40.7463 48.2448 42.0611 46.7487 43.1832C46.216 43.5912 46.0006 44.2939 46.2273 44.9287C46.2273 44.94 46.7147 46.4361 45.9213 47.8529C45.1619 49.213 43.4731 50.1877 40.9116 50.7318C38.8601 51.1738 36.0719 51.2531 32.649 50.9811C32.6036 50.9811 32.547 50.9811 32.4903 50.9811C25.2024 51.1398 17.8352 50.1877 17.7559 50.1764H17.7445L16.5998 50.0404C16.6678 49.723 16.7018 49.383 16.7018 49.043V30.6136C16.7018 30.1262 16.6224 29.6502 16.4864 29.2082C16.6905 28.4488 17.2572 26.76 18.5946 25.3205C23.6836 21.2856 28.6593 7.67323 28.8747 7.08386C28.9654 6.84584 28.988 6.58515 28.9427 6.32447C28.75 5.05504 28.818 3.50226 29.09 3.03756C29.6907 3.04889 31.3115 3.2189 32.2863 4.56767C33.4424 6.16579 33.397 9.022 32.1503 12.8076C30.2461 18.5767 30.0874 21.6143 31.5949 22.9517C32.3429 23.6204 33.3404 23.6544 34.0657 23.3937C34.7571 23.2351 35.4145 23.099 36.0379 22.997C36.0832 22.9857 36.1399 22.9744 36.1852 22.963C39.6648 22.2036 45.8986 21.7389 48.0634 23.7111C49.8996 25.3885 48.5961 27.61 48.4488 27.8481C48.0294 28.4828 48.1541 29.3102 48.7208 29.8202C48.7322 29.8315 49.9222 30.9536 49.9789 32.4611C50.0243 33.4698 49.5482 34.5012 48.5621 35.5213Z" fill="#25BFB6"/>
</svg>
