<svg width="62" height="54" viewBox="0 0 62 54" fill="none" xmlns="http://www.w3.org/2000/svg">
<path d="M60.0113 50.7139H1.85838C1.06192 50.7139 0.416382 51.3594 0.416382 52.1559C0.416382 52.9521 1.06192 53.5979 1.85838 53.5979H60.0113C60.8075 53.5979 61.4533 52.9521 61.4533 52.1559C61.4533 51.3595 60.8078 50.7139 60.0113 50.7139Z" fill="#1F5BF7"/>
<path d="M56.2521 6.80753H46.1252C45.329 6.80753 44.6832 7.4533 44.6832 8.24952V18.0536H37.4402V1.442C37.4402 0.645776 36.7944 0 35.9982 0H25.8711C25.0748 0 24.4291 0.645776 24.4291 1.442V28.7277H17.1861V16.4703C17.1861 15.6739 16.5403 15.0283 15.7441 15.0283H5.61717C4.82071 15.0283 4.17517 15.6739 4.17517 16.4703V44.0756C4.17517 44.872 4.82095 45.5176 5.61717 45.5176H15.7441H25.8709H35.9981H46.1251H56.252C57.0484 45.5176 57.694 44.8718 57.694 44.0756V8.24952C57.6941 7.4533 57.0485 6.80753 56.2521 6.80753ZM14.3022 42.6336H7.05917V17.9123H14.3022V42.6336ZM24.4293 42.6336H17.1863V31.6117H24.4293V42.6336ZM34.5563 19.4956V42.6336H27.3132V2.884H34.5563V19.4956ZM44.6834 42.6336H37.4404V20.9376H44.6834V42.6336ZM54.8103 42.6336H47.5674V19.4956V9.69152H54.8104V42.6336H54.8103Z" fill="black"/>
</svg>
