<svg width="46" height="46" viewBox="0 0 46 46" fill="none" xmlns="http://www.w3.org/2000/svg">
<path d="M33.0238 23.0817C32.1399 22.6615 31.2379 22.2995 30.3202 21.9963C33.2925 19.7653 35.2187 16.2128 35.2187 12.2188C35.2187 5.48137 29.7374 0 23 0C16.2625 0 10.7812 5.48137 10.7812 12.2188C10.7812 16.2172 12.7118 19.7732 15.6896 22.0037C12.9613 22.902 10.4012 24.2997 8.16047 26.1427C4.05174 29.5224 1.19498 34.2364 0.116583 39.4165C-0.22141 41.0396 0.183516 42.7068 1.22732 43.9903C2.266 45.2675 3.8062 46 5.45285 46H27.582C28.5744 46 29.3789 45.1955 29.3789 44.2031C29.3789 43.2107 28.5744 42.4062 27.582 42.4062H5.45285C4.68577 42.4062 4.22298 41.9781 4.01544 41.7229C3.65706 41.2822 3.51834 40.7086 3.63486 40.1489C5.49957 31.192 13.4001 24.649 22.5236 24.4283C22.6816 24.4344 22.8404 24.4375 23 24.4375C23.1611 24.4375 23.3214 24.4344 23.481 24.4282C26.2769 24.4937 28.9659 25.1318 31.481 26.3275C32.3774 26.7533 33.4492 26.3723 33.8753 25.4759C34.3013 24.5796 33.9202 23.5077 33.0238 23.0817ZM23.4382 20.8327C23.2924 20.8301 23.1463 20.8287 23 20.8287C22.855 20.8287 22.71 20.8302 22.5651 20.8329C18.0105 20.6057 14.375 16.8288 14.375 12.2188C14.375 7.46287 18.2441 3.59375 23 3.59375C27.7558 3.59375 31.625 7.46287 31.625 12.2188C31.625 16.8276 27.9912 20.6038 23.4382 20.8327Z" fill="black"/>
<path d="M44.2028 35.668H39.2614V30.7266C39.2614 29.7341 38.4569 28.9297 37.4645 28.9297C36.4721 28.9297 35.6676 29.7341 35.6676 30.7266V35.668H30.7262C29.7338 35.668 28.9293 36.4724 28.9293 37.4648C28.9293 38.4573 29.7338 39.2617 30.7262 39.2617H35.6676V44.2031C35.6676 45.1955 36.4721 46 37.4645 46C38.4569 46 39.2614 45.1955 39.2614 44.2031V39.2617H44.2028C45.1952 39.2617 45.9996 38.4573 45.9996 37.4648C45.9996 36.4724 45.1952 35.668 44.2028 35.668Z" fill="#1F5CFA"/>
</svg>
