<svg width="63" height="52" viewBox="0 0 63 52" fill="none" xmlns="http://www.w3.org/2000/svg">
<path d="M46.0365 12H6.41234C2.87525 12 0 14.8752 0 18.4123V45.4939C0 49.031 2.87525 51.9062 6.41234 51.9062H46.0256C49.5627 51.9062 52.438 49.031 52.438 45.4939V18.4232C52.4488 14.8861 49.5736 12 46.0365 12ZM49.5193 45.4939C49.5193 47.4144 47.9569 48.9768 46.0365 48.9768H6.41234C4.49189 48.9768 2.9295 47.4144 2.9295 45.4939V18.4232C2.9295 16.5027 4.49189 14.9403 6.41234 14.9403H46.0256C47.9461 14.9403 49.5085 16.5027 49.5085 18.4232V45.4939H49.5193Z" fill="black"/>
<path d="M33.0708 31.6168L45.8955 20.1158C46.4923 19.5733 46.5465 18.6511 46.004 18.0435C45.4615 17.4467 44.5393 17.3925 43.9317 17.935L26.2462 33.8085L22.7959 30.7271C22.785 30.7162 22.7742 30.7054 22.7742 30.6945C22.6982 30.6186 22.6223 30.5535 22.5355 30.4884L8.49561 17.9241C7.88801 17.3816 6.96576 17.4359 6.42326 18.0435C5.88076 18.6511 5.93501 19.5733 6.54261 20.1158L19.5192 31.7144L6.59686 43.8122C6.01096 44.3655 5.97841 45.2878 6.53176 45.8845C6.82471 46.1883 7.21531 46.3511 7.60591 46.3511C7.96396 46.3511 8.32201 46.2209 8.60411 45.9605L21.7217 33.6891L25.2805 36.8682C25.5626 37.1177 25.9098 37.2371 26.257 37.2371C26.6042 37.2371 26.9623 37.1069 27.2335 36.8573L30.89 33.5806L43.9317 45.9713C44.2138 46.2426 44.5827 46.3728 44.9407 46.3728C45.3313 46.3728 45.7111 46.2209 46.004 45.9171C46.5574 45.3312 46.5357 44.3981 45.9498 43.8447L33.0708 31.6168Z" fill="black"/>
<path d="M50.9351 23.8702C57.5267 23.8702 62.8702 18.5267 62.8702 11.9351C62.8702 5.34352 57.5267 0 50.9351 0C44.3435 0 39 5.34352 39 11.9351C39 18.5267 44.3435 23.8702 50.9351 23.8702Z" fill="#F15123"/>
<path d="M48.244 7.15492C48.244 6.7678 48.4004 6.46247 48.7131 6.23907L51.0363 4.00518C51.2001 3.84147 51.4011 3.7594 51.6395 3.7594C51.9076 3.7594 52.1495 3.83027 52.3654 3.97161C52.5812 4.11322 52.6894 4.30319 52.6894 4.54124V19.3293C52.6894 19.5678 52.57 19.7576 52.332 19.8991C52.0935 20.0407 51.8183 20.1113 51.5055 20.1113C51.1778 20.1113 50.8985 20.0407 50.6679 19.8991C50.4367 19.7577 50.3215 19.5678 50.3215 19.3293V6.909L49.5397 7.89199C49.3907 8.04093 49.227 8.1154 49.0482 8.1154C48.8248 8.1154 48.635 8.01496 48.4785 7.81393C48.3222 7.61278 48.244 7.39324 48.244 7.15492Z" fill="white"/>
</svg>
