<svg width="54" height="54" viewBox="0 0 54 54" fill="none" xmlns="http://www.w3.org/2000/svg">
<path d="M45.7301 21.4659V18.2277V5.83287C45.7301 4.09344 44.9629 2.45843 43.6251 1.34698C42.2873 0.235418 40.5393 -0.218634 38.8293 0.0995718C38.8085 0.103474 38.7876 0.108009 38.7669 0.113283C38.6785 0.135326 29.8946 2.32227 27.0004 2.32227C24.1074 2.32227 15.3223 0.135326 15.234 0.113283C15.2133 0.108009 15.1925 0.103474 15.1715 0.0995718C13.4617 -0.219161 11.7137 0.235418 10.3758 1.34687C9.03802 2.45843 8.27072 4.09333 8.27072 5.83297V18.5638V21.466C2.88453 23.151 0.0427246 25.4441 0.0427246 28.1214C0.0427246 30.807 2.92282 33.12 8.37187 34.8101C13.3626 36.3581 19.9784 37.2106 27.0005 37.2106C34.0225 37.2106 40.6384 36.3581 45.6292 34.8101C51.0781 33.12 53.9583 30.8071 53.9583 28.1214C53.9582 25.4441 51.1163 23.151 45.7301 21.4659ZM10.3802 16.1174C14.9729 17.2147 20.6049 17.8136 26.4209 17.8136C29.947 17.8136 33.3704 17.6002 36.5959 17.1791C37.1734 17.1037 37.5806 16.5743 37.5052 15.9968C37.4297 15.4191 36.9004 15.0111 36.3228 15.0874C33.1875 15.4966 29.856 15.7042 26.4209 15.7042C20.5529 15.7042 14.897 15.0816 10.3802 13.9454V5.83287C10.3801 4.72247 10.8699 3.67883 11.7238 2.96933C12.57 2.26637 13.6733 1.97474 14.7556 2.16796C15.4493 2.34062 23.9137 4.43169 27.0005 4.43169C30.0871 4.43169 38.5515 2.34072 39.2452 2.16796C40.3273 1.97495 41.4308 2.26626 42.277 2.96933C43.131 3.67873 43.6206 4.72247 43.6206 5.83276V17.4395C38.9279 18.7755 32.8607 19.5081 26.4208 19.5081C20.5525 19.5081 14.8966 18.8855 10.3801 17.7494V16.1174H10.3802ZM10.3801 22.2488V19.9218C14.9722 21.0189 20.6046 21.6176 26.4208 21.6176C32.7899 21.6176 38.8293 20.9154 43.6206 19.6288V21.2656C39.0326 22.4757 33.1935 23.141 27.1276 23.141C23.6917 23.141 20.3601 22.9334 17.2256 22.5242C16.6479 22.4477 16.1187 22.8559 16.0433 23.4334C15.9679 24.0111 16.375 24.5405 16.9526 24.6159C20.1772 25.0368 23.6006 25.2504 27.1276 25.2504C33.1362 25.2504 38.9484 24.6112 43.6206 23.4438V24.78C38.9282 26.1158 32.8605 26.8477 26.4208 26.8477C20.5526 26.8477 14.8965 26.2257 10.3801 25.0894V22.2488V22.2488ZM45.0042 32.7952C40.2102 34.2823 33.8163 35.101 27.0005 35.101C20.1846 35.101 13.7908 34.2822 8.99679 32.7952C4.77499 31.4857 2.15214 29.6948 2.15214 28.1215C2.15214 26.6271 4.46164 24.9724 8.27083 23.6841V25.9034C8.27083 26.1114 8.33179 26.3082 8.43874 26.4743C8.57627 26.6877 8.78985 26.8505 9.04783 26.9209C12.0548 27.7416 15.5926 28.3319 19.3836 28.6592C19.7626 28.6919 20.1442 28.722 20.5281 28.7495C21.2959 28.8043 22.0726 28.8485 22.8563 28.8819C24.0317 28.9318 25.2223 28.9573 26.4208 28.9573C33.4113 28.9573 40.0046 28.1114 44.986 26.5754C45.4282 26.4391 45.73 26.0303 45.73 25.5675V23.6842C49.5392 24.9725 51.8488 26.6272 51.8488 28.1216C51.8487 29.6948 49.226 31.4857 45.0042 32.7952Z" fill="#1F5CFA"/>
<path d="M42.5928 40.0786H11.4082C8.87835 40.0786 6.82019 42.1368 6.82019 44.6666V49.202C6.82019 51.8481 8.97296 54.0009 11.6191 54.0009H18.4547C22.6939 54.0009 26.1428 50.5521 26.1428 46.3128V42.188H27.8585V46.3128C27.8585 50.552 31.3072 54.0009 35.5465 54.0009H42.3821C45.0283 54.0009 47.1812 51.8481 47.1812 49.202V44.6666C47.1809 42.1368 45.1226 40.0786 42.5928 40.0786ZM18.4546 51.8915H11.619C10.136 51.8915 8.9295 50.685 8.9295 49.202V44.6666C8.9295 43.2999 10.0414 42.188 11.4081 42.188H24.033V46.3128H24.0332C24.0332 49.3888 21.5306 51.8915 18.4546 51.8915ZM42.3818 51.8915H35.5461C32.4702 51.8915 29.9676 49.3888 29.9676 46.3128V42.188H42.5926C43.9593 42.188 45.0711 43.2999 45.0711 44.6666V49.202H45.0712C45.0714 50.685 43.8649 51.8915 42.3818 51.8915Z" fill="black"/>
<path d="M15.3654 43.2652C14.9536 42.8535 14.2859 42.8535 13.8739 43.2652L10.4636 46.6755C10.0518 47.0874 10.0519 47.7552 10.4637 48.1672C10.6696 48.3731 10.9396 48.4761 11.2094 48.4761C11.4794 48.4761 11.7493 48.3731 11.9552 48.1672L15.3655 44.7569C15.7774 44.3451 15.7773 43.6772 15.3654 43.2652Z" fill="black"/>
</svg>
