<svg width="76" height="26" viewBox="0 0 76 26" fill="none" xmlns="http://www.w3.org/2000/svg">
<path d="M10.1039 25.27C8.15395 25.27 6.27895 25.015 4.47895 24.505C2.67895 23.965 1.26895 23.29 0.248945 22.48L2.04895 19.06C3.09895 19.81 4.37395 20.41 5.87395 20.86C7.37395 21.31 8.88895 21.535 10.4189 21.535C14.1989 21.535 16.0889 20.455 16.0889 18.295C16.0889 17.575 15.8339 17.005 15.3239 16.585C14.8139 16.165 14.1689 15.865 13.3889 15.685C12.6389 15.475 11.5589 15.25 10.1489 15.01C8.22895 14.71 6.65395 14.365 5.42395 13.975C4.22395 13.585 3.18895 12.925 2.31895 11.995C1.44895 11.065 1.01395 9.76 1.01395 8.08C1.01395 5.92 1.91395 4.195 3.71395 2.905C5.51395 1.585 7.92895 0.924999 10.9589 0.924999C12.5489 0.924999 14.1389 1.12 15.7289 1.51C17.3189 1.9 18.6239 2.425 19.6439 3.085L17.7989 6.505C15.8489 5.245 13.5539 4.615 10.9139 4.615C9.08395 4.615 7.68895 4.915 6.72895 5.515C5.76895 6.115 5.28895 6.91 5.28895 7.9C5.28895 8.68 5.55895 9.295 6.09895 9.745C6.63895 10.195 7.29895 10.525 8.07895 10.735C8.88895 10.945 10.0139 11.185 11.4539 11.455C13.3739 11.785 14.9189 12.145 16.0889 12.535C17.2889 12.895 18.3089 13.525 19.1489 14.425C19.9889 15.325 20.4089 16.585 20.4089 18.205C20.4089 20.365 19.4789 22.09 17.6189 23.38C15.7889 24.64 13.2839 25.27 10.1039 25.27ZM47.3629 13.21C47.3629 13.54 47.3329 13.975 47.2729 14.515H27.9229C28.1929 16.615 29.1079 18.31 30.6679 19.6C32.2579 20.86 34.2229 21.49 36.5629 21.49C39.4129 21.49 41.7079 20.53 43.4479 18.61L45.8329 21.4C44.7529 22.66 43.4029 23.62 41.7829 24.28C40.1929 24.94 38.4079 25.27 36.4279 25.27C33.9079 25.27 31.6729 24.76 29.7229 23.74C27.7729 22.69 26.2579 21.235 25.1779 19.375C24.1279 17.515 23.6029 15.415 23.6029 13.075C23.6029 10.765 24.1129 8.68 25.1329 6.82C26.1829 4.96 27.6079 3.52 29.4079 2.5C31.2379 1.45 33.2929 0.924999 35.5729 0.924999C37.8529 0.924999 39.8779 1.45 41.6479 2.5C43.4479 3.52 44.8429 4.96 45.8329 6.82C46.8529 8.68 47.3629 10.81 47.3629 13.21ZM35.5729 4.57C33.5029 4.57 31.7629 5.2 30.3529 6.46C28.9729 7.72 28.1629 9.37 27.9229 11.41H43.2229C42.9829 9.4 42.1579 7.765 40.7479 6.505C39.3679 5.215 37.6429 4.57 35.5729 4.57ZM63.5766 25.27C61.2066 25.27 59.0766 24.745 57.1866 23.695C55.2966 22.645 53.8116 21.205 52.7316 19.375C51.6816 17.515 51.1566 15.415 51.1566 13.075C51.1566 10.735 51.6816 8.65 52.7316 6.82C53.8116 4.96 55.2966 3.52 57.1866 2.5C59.0766 1.45 61.2066 0.924999 63.5766 0.924999C65.9466 0.924999 68.0616 1.45 69.9216 2.5C71.8116 3.52 73.2816 4.96 74.3316 6.82C75.4116 8.65 75.9516 10.735 75.9516 13.075C75.9516 15.415 75.4116 17.515 74.3316 19.375C73.2816 21.205 71.8116 22.645 69.9216 23.695C68.0616 24.745 65.9466 25.27 63.5766 25.27ZM63.5766 21.49C65.1066 21.49 66.4716 21.145 67.6716 20.455C68.9016 19.735 69.8616 18.745 70.5516 17.485C71.2416 16.195 71.5866 14.725 71.5866 13.075C71.5866 11.425 71.2416 9.97 70.5516 8.71C69.8616 7.42 68.9016 6.43 67.6716 5.74C66.4716 5.05 65.1066 4.705 63.5766 4.705C62.0466 4.705 60.6666 5.05 59.4366 5.74C58.2366 6.43 57.2766 7.42 56.5566 8.71C55.8666 9.97 55.5216 11.425 55.5216 13.075C55.5216 14.725 55.8666 16.195 56.5566 17.485C57.2766 18.745 58.2366 19.735 59.4366 20.455C60.6666 21.145 62.0466 21.49 63.5766 21.49Z" fill="#CD2F03"/>
</svg>
